<?xml version="1.0" encoding="UTF-8" standalone="no"?>
<!-- Created with Inkscape (http://www.inkscape.org/) -->

<svg
   width="111.3216mm"
   height="40.15292mm"
   viewBox="0 0 111.3216 40.15292"
   version="1.1"
   id="svg1"
   xml:space="preserve"
   sodipodi:docname="logo.svg"
   inkscape:version="1.3.2 (091e20ef0f, 2023-11-25, custom)"
   xmlns:inkscape="http://www.inkscape.org/namespaces/inkscape"
   xmlns:sodipodi="http://sodipodi.sourceforge.net/DTD/sodipodi-0.dtd"
   xmlns="http://www.w3.org/2000/svg"
   xmlns:svg="http://www.w3.org/2000/svg"><sodipodi:namedview
     id="namedview1"
     pagecolor="#ffffff"
     bordercolor="#666666"
     borderopacity="1.0"
     inkscape:showpageshadow="2"
     inkscape:pageopacity="0.0"
     inkscape:pagecheckerboard="0"
     inkscape:deskcolor="#d1d1d1"
     inkscape:document-units="mm"
     showgrid="false"
     inkscape:zoom="0.88167274"
     inkscape:cx="166.72853"
     inkscape:cy="7.37235"
     inkscape:window-width="1916"
     inkscape:window-height="1031"
     inkscape:window-x="1920"
     inkscape:window-y="24"
     inkscape:window-maximized="1"
     inkscape:current-layer="layer1" /><defs
     id="defs1" /><g
     id="layer1"
     transform="translate(-44.93746,-43.591404)"><g
       id="g6"
       transform="matrix(2.0694424,0,0,2.0694424,-200.71935,-61.211164)"><g
         id="g14"
         transform="matrix(0.91606123,0,0,0.91606123,10.003471,13.447352)"><path
           style="fill:#78853f;fill-opacity:1;stroke:#000000;stroke-width:0.18473;stroke-dasharray:none;stroke-opacity:1"
           d="m 127.09785,52.374265 c 0.45096,-0.156274 -0.66642,0.507342 -0.66878,0.84902 -0.002,0.341678 0.79878,4.351165 0.82958,5.644872 0.0308,1.293707 -0.11934,4.213912 -0.20209,2.048996 -0.0828,-2.164916 -0.94357,-7.334337 -1.22723,-7.690196 -0.28366,-0.355859 -0.5205,-0.514658 -0.88362,-0.696049 -0.36312,-0.181391 0.48377,0.200215 1.14747,0.145281 0.66369,-0.05493 0.69934,-0.182064 1.00467,-0.301924 z"
           id="path6" /><path
           style="display:inline;fill:#cf7803;fill-opacity:1;stroke:#000000;stroke-width:0.18473;stroke-dasharray:none;stroke-opacity:1"
           d="m 124.78944,52.05544 c -0.49043,-0.157364 -1.4606,-0.694983 -2.04134,-1.378995 -0.39486,-0.465098 -1.23822,-1.908011 -1.23822,-2.026757 0,-0.03342 -0.14804,-0.258059 -0.25187,-0.465766 -0.10386,-0.207705 -0.42662,-0.841963 -0.70439,-1.454737 -0.60593,-1.336719 -1.04411,-1.911006 -1.27776,-2.275639 -0.16326,-0.254782 -0.20335,-0.392076 -0.33177,-0.579317 l -0.18794,-0.519446 v -0.395416 c 0,-0.432071 0.14654,-0.605114 0.51244,-0.605114 0.11106,0 0.23082,-0.05872 0.26613,-0.130496 0.27603,-0.561198 1.04438,-0.880594 1.51785,-0.630951 l 0.28471,0.150117 0.29318,-0.251403 c 0.16125,-0.138272 0.38855,-0.251402 0.50513,-0.251402 0.11657,0 0.38422,-0.09617 0.59477,-0.2137 0.29645,-0.16548 0.49304,-0.203639 0.8712,-0.169119 0.26861,0.02452 0.71548,-0.01551 0.99305,-0.08892 0.61745,-0.163328 1.56899,-0.02938 2.08601,0.293636 0,0 0.20743,0.911702 0.31476,0.668315 0.10733,-0.243388 0.23079,-0.574428 0.23079,-0.574428 0.12219,-0.304142 1.07525,-0.147414 1.34027,0.02705 0.12044,0.07928 0.5156,0.176804 0.87817,0.216713 l 0.65921,0.07257 0.17112,0.215965 c 0.25247,0.318584 0.69416,0.460999 1.08558,0.350018 0.18046,-0.05116 0.36431,-0.06479 0.40856,-0.03029 0.0442,0.03451 0.21348,0.06162 0.3761,0.06027 0.33069,-0.0027 1.18986,0.465261 1.38706,0.755599 0.25094,0.369435 0.23199,0.502302 -0.13683,0.959071 -0.19621,0.243022 -0.45414,0.624916 -0.57316,0.848655 -0.11902,0.223739 -0.29845,0.535301 -0.39874,0.69236 -0.10029,0.15706 -0.52956,1.159781 -0.95394,2.228271 -0.79451,2.000397 -1.39496,2.800442 -2.07395,3.389312 -0.38307,0.332228 -0.86719,0.605632 -1.38155,0.790497 -0.51436,0.184865 -1.30392,0.405515 -1.72593,0.488421 -0.42201,0.08291 -1.00827,-0.0076 -1.4987,-0.164944 z"
           id="path1" /><g
           id="g5"
           style="fill:#fc9103;fill-opacity:1"><path
             style="display:inline;fill:#fc9103;fill-opacity:1;stroke:#000000;stroke-width:0.2;stroke-dasharray:none;stroke-opacity:1"
             d="m 123.17179,43.452935 c 0.13019,-0.05848 0.62573,0.203514 0.88153,0.466056 0.28555,0.293082 0.62613,1.996087 0.74386,3.719543 0.23233,3.401011 0.27805,3.65897 0.75009,4.231745 0,0 0.35314,0.367274 0.43026,0.390923 0.0771,0.02365 -0.63725,-0.02383 -0.63725,-0.02383 -0.13469,-0.03814 -0.26577,-0.07913 -0.3937,-0.123794 -1.48957,-0.520094 -2.55153,-1.539261 -3.91301,-4.382389 -1.11976,-2.338349 -1.33124,-2.737374 -1.76874,-3.337298 -0.41442,-0.56828 -0.49486,-0.863534 -0.26355,-0.967428 0.23171,-0.104073 0.35893,0.02295 0.70252,0.701431 0.18296,0.361285 0.3332,0.594667 0.42579,0.553832 0.0926,-0.04084 -0.0288,-0.388594 -0.34648,-1.093104 0,0 -0.21704,-0.343169 -0.20602,-0.45689 0.011,-0.113721 0.10662,-0.150366 0.10662,-0.150366 0.0586,-0.08271 0.14973,-0.150367 0.20253,-0.150367 0.0528,0 0.18763,-0.100836 0.29971,-0.224081 0,0 0.10264,-0.191867 0.20378,-0.22408 0.10114,-0.03221 0.32623,0.07163 0.32623,0.07163 0.17942,0.0394 0.5697,0.329107 0.66206,0.426769 0.0923,0.09766 0.0839,0.283642 0.33584,0.355136 0.25192,0.07149 1.04598,-0.278558 1.04598,-0.278558 0.007,0.159981 0.31071,0.540596 0.41195,0.495121 z"
             id="path5" /><path
             style="display:inline;fill:#fc9103;fill-opacity:1;stroke:#000000;stroke-width:0.2;stroke-dasharray:none;stroke-opacity:1"
             d="m 126.87451,52.063217 c 0.0836,-0.05042 0.27296,-0.04941 0.40631,-0.09167 1.21319,-0.384463 2.16818,-0.87141 2.89024,-1.919051 0.36115,-0.523999 0.75304,-1.14877 1.08309,-1.934542 0.23355,-0.556046 0.51629,-1.305893 0.80756,-1.96409 l 0.47776,-1.079658 -0.43938,-0.621947 c -0.17219,-0.261605 -0.25406,-0.555969 -0.31678,-0.859691 -0.12448,-0.784655 -0.52195,-1.231507 -1.09541,-1.231507 -0.075,0 -0.15851,-0.06761 -0.1856,-0.150249 -0.0704,-0.214681 -0.26653,-0.282888 -0.9827,-0.341717 -0.34738,-0.02853 -0.72152,-0.119614 -0.83143,-0.202397 -0.30405,-0.229003 -1.00759,-0.183694 -1.61212,0.103823 -0.30988,0.147384 -0.63373,0.232193 -0.77011,0.201678 -0.14051,-0.03144 -0.3857,0.03712 -0.60849,0.170158 -0.21983,0.131269 -0.45688,0.198217 -0.57695,0.162943 -0.42744,-0.12557 -2.32287,0.399144 -2.32287,0.643042 0,0.172467 0.30345,0.553082 0.40469,0.507607 0.13019,-0.05848 0.62573,0.203514 0.88153,0.466056 0.28555,0.293082 0.62613,1.996087 0.74386,3.719543 0.23233,3.401011 0.27805,3.65897 0.75009,4.231745 l 0.31745,0.385196 0.41364,-0.0518 c 0.22751,-0.02849 0.48203,-0.09305 0.56562,-0.143472 z"
             id="path3" /></g></g><g
         id="g1"
         inkscape:label="poppy-text"><text
           xml:space="preserve"
           style="font-style:normal;font-variant:normal;font-weight:normal;font-stretch:normal;font-size:16.8096px;font-family:'IBM 3270 Narrow';-inkscape-font-specification:'IBM 3270 Narrow, Normal';font-variant-ligatures:normal;font-variant-caps:normal;font-variant-numeric:normal;font-variant-east-asian:normal;display:none;fill:#78853f;fill-opacity:1;stroke:#000000;stroke-width:0.190889;stroke-dasharray:none;stroke-opacity:1"
           x="132.51512"
           y="63.227135"
           id="text6"
           inkscape:label="text"><tspan
             id="tspan6"
             style="font-style:normal;font-variant:normal;font-weight:normal;font-stretch:normal;font-size:16.8096px;font-family:'IBM 3270 Narrow';-inkscape-font-specification:'IBM 3270 Narrow, Normal';font-variant-ligatures:normal;font-variant-caps:normal;font-variant-numeric:normal;font-variant-east-asian:normal;fill:#78853f;fill-opacity:1;stroke:#000000;stroke-width:0.190889;stroke-dasharray:none;stroke-opacity:1"
             x="132.51512"
             y="63.227135">poppy</tspan></text><path
           d="m 133.47327,55.377051 h 3.69811 q 0.15129,0 0.21853,0.06724 l 2.06758,1.983532 q 0.15128,0.151287 0.15128,0.353002 v 2.067581 q 0,0.201715 -0.15128,0.353002 l -2.01716,2.033961 q -0.15128,0.151287 -0.33619,0.151287 h -2.6223 v 3.092966 h -1.00857 z m 1.00857,0.907719 v 5.110118 h 2.40378 l 1.73139,-1.748198 v -1.664151 l -1.78182,-1.697769 z m 8.2031,0.655574 v 3.731731 l 0.72282,0.706004 h 2.72315 l 0.67239,-0.706004 v -3.731731 l -0.65558,-0.739622 h -2.73996 z m -0.84048,-0.554717 1.02539,-1.059005 q 0.11767,-0.117667 0.33619,-0.117667 h 3.16021 q 0.20171,0 0.36981,0.168096 l 0.94134,1.059005 q 0.13447,0.134477 0.13447,0.319382 v 4.118353 q 0,0.201715 -0.15128,0.353001 l -0.97496,0.991767 q -0.10086,0.117667 -0.353,0.117667 h -3.12659 q -0.1849,0 -0.33619,-0.117667 l -1.04219,-0.974957 q -0.15129,-0.134477 -0.15129,-0.369811 v -4.151972 q 0,-0.168096 0.16809,-0.336192 z m 8.03501,-1.008576 h 3.69811 q 0.15129,0 0.21853,0.06724 l 2.06758,1.983532 q 0.15128,0.151287 0.15128,0.353002 v 2.067581 q 0,0.201715 -0.15128,0.353002 l -2.01716,2.033961 q -0.15128,0.151287 -0.33619,0.151287 h -2.62229 v 3.092966 h -1.00858 z m 1.00858,0.907719 v 5.110118 h 2.40377 l 1.73139,-1.748198 v -1.664151 l -1.78182,-1.697769 z m 7.19452,-0.907719 h 3.69811 q 0.15129,0 0.21853,0.06724 l 2.06758,1.983532 q 0.15128,0.151287 0.15128,0.353002 v 2.067581 q 0,0.201715 -0.15128,0.353002 l -2.01715,2.033961 q -0.15129,0.151287 -0.3362,0.151287 h -2.62229 v 3.092966 h -1.00858 z m 1.00858,0.907719 v 5.110118 h 2.40377 l 1.73139,-1.748198 v -1.664151 l -1.78182,-1.697769 z m 10.05215,5.631216 -2.70634,-2.739965 q -0.15129,-0.151287 -0.15129,-0.353002 v -3.597254 h 1.00858 v 3.395539 l 2.57186,2.571869 1.52968,-1.529674 v -4.437734 h 1.00857 v 4.63945 q 0,0.201715 -0.15128,0.353001 l -5.16055,5.160548 -0.706,-0.706004 z"
           id="text6-4"
           style="font-size:16.8096px;font-family:'IBM 3270 Narrow';-inkscape-font-specification:'IBM 3270 Narrow, Normal';fill:#78853f;stroke:#000000;stroke-width:0.190889"
           aria-label="poppy"
           inkscape:label="text-path" /></g></g></g></svg>
